<svg width="154" height="26" viewBox="0 0 154 26" fill="none" xmlns="http://www.w3.org/2000/svg">
<path fill-rule="evenodd" clip-rule="evenodd" d="M17.6078 5.77665C19.2039 5.77665 20.4977 4.4835 20.4977 2.88832C20.4977 1.29315 19.2039 0 17.6078 0C16.0119 0 14.718 1.29315 14.718 2.88832C14.718 4.4835 16.0119 5.77665 17.6078 5.77665Z" fill="black"/>
<path fill-rule="evenodd" clip-rule="evenodd" d="M17.6078 13.3546C19.2039 13.3546 20.4977 12.0615 20.4977 10.4664C20.4977 8.87113 19.2039 7.578 17.6078 7.578C16.0119 7.578 14.718 8.87113 14.718 10.4664C14.718 12.0615 16.0119 13.3546 17.6078 13.3546Z" fill="black"/>
<path fill-rule="evenodd" clip-rule="evenodd" d="M17.6078 20.9327C19.2039 20.9327 20.4977 19.6395 20.4977 18.0444C20.4977 16.4491 19.2039 15.156 17.6078 15.156C16.0119 15.156 14.718 16.4491 14.718 18.0444C14.718 19.6395 16.0119 20.9327 17.6078 20.9327Z" fill="black"/>
<path fill-rule="evenodd" clip-rule="evenodd" d="M10.249 13.3546C11.845 13.3546 13.1388 12.0615 13.1388 10.4664C13.1388 8.87113 11.845 7.578 10.249 7.578C8.65296 7.578 7.35913 8.87113 7.35913 10.4664C7.35913 12.0615 8.65296 13.3546 10.249 13.3546Z" fill="black"/>
<path fill-rule="evenodd" clip-rule="evenodd" d="M10.249 20.9325C11.845 20.9325 13.1388 19.6394 13.1388 18.0442C13.1388 16.4491 11.845 15.1559 10.249 15.1559C8.65296 15.1559 7.35913 16.4491 7.35913 18.0442C7.35913 19.6394 8.65296 20.9325 10.249 20.9325Z" fill="black"/>
<path fill-rule="evenodd" clip-rule="evenodd" d="M2.8901 20.9327C4.48612 20.9327 5.77994 19.6395 5.77994 18.0444C5.77994 16.4491 4.48612 15.156 2.8901 15.156C1.29408 15.156 0.000244141 16.4491 0.000244141 18.0444C0.000244141 19.6395 1.29408 20.9327 2.8901 20.9327Z" fill="black"/>
<path d="M147.38 20.9773C145.753 20.9773 144.382 20.3712 143.265 19.1591C142.165 17.947 141.615 16.4797 141.615 14.7573C141.615 13.0348 142.165 11.5675 143.265 10.3554C144.382 9.14329 145.753 8.53723 147.38 8.53723C148.193 8.53723 148.943 8.72064 149.629 9.08747C150.315 9.43834 150.841 9.86895 151.208 10.3793V8.77646H153.839V20.738H151.208V19.1352C150.841 19.6456 150.315 20.0841 149.629 20.451C148.943 20.8018 148.193 20.9773 147.38 20.9773ZM145.299 17.4845C145.969 18.2181 146.822 18.585 147.858 18.585C148.895 18.585 149.748 18.2181 150.418 17.4845C151.088 16.7509 151.423 15.8418 151.423 14.7573C151.423 13.6727 151.088 12.7637 150.418 12.03C149.748 11.2964 148.895 10.9295 147.858 10.9295C146.822 10.9295 145.969 11.2964 145.299 12.03C144.629 12.7637 144.294 13.6727 144.294 14.7573C144.294 15.8418 144.629 16.7509 145.299 17.4845Z" fill="black"/>
<path d="M137.435 20.738V14.0156C137.435 13.0428 137.252 12.2852 136.885 11.7429C136.534 11.2007 136.008 10.9295 135.306 10.9295C134.461 10.9295 133.783 11.2565 133.272 11.9104C132.762 12.5643 132.491 13.4814 132.459 14.6616V20.738H129.828V14.0156C129.828 13.0428 129.644 12.2852 129.277 11.7429C128.926 11.2007 128.4 10.9295 127.698 10.9295C126.821 10.9295 126.119 11.2724 125.593 11.9582C125.083 12.644 124.828 13.6089 124.828 14.8529V20.738H122.196V8.77646H124.828V10.4032C125.561 9.15923 126.694 8.53723 128.225 8.53723C130.027 8.53723 131.263 9.3267 131.933 10.9056C132.268 10.156 132.778 9.5739 133.464 9.15923C134.166 8.74457 134.931 8.53723 135.76 8.53723C137.1 8.53723 138.153 8.99177 138.918 9.90085C139.684 10.8099 140.067 12.038 140.067 13.585V20.738H137.435Z" fill="black"/>
<path d="M111.095 17.2213C111.781 17.9071 112.626 18.25 113.631 18.25C114.635 18.25 115.481 17.9071 116.167 17.2213C116.852 16.5196 117.195 15.6424 117.195 14.5898C117.195 13.5372 116.852 12.668 116.167 11.9822C115.481 11.2804 114.635 10.9295 113.631 10.9295C112.626 10.9295 111.781 11.2804 111.095 11.9822C110.409 12.668 110.066 13.5372 110.066 14.5898C110.066 15.6424 110.409 16.5196 111.095 17.2213ZM113.391 25.9772C112.227 25.9772 111.151 25.7779 110.162 25.3791C109.173 24.9964 108.384 24.4621 107.793 23.7763L109.396 21.8864C110.465 23.0506 111.789 23.6327 113.368 23.6327C114.404 23.6327 115.265 23.2978 115.951 22.628C116.637 21.9741 116.98 21.065 116.98 19.9007V18.8003C116.597 19.3425 116.063 19.7891 115.377 20.14C114.691 20.4908 113.95 20.6663 113.152 20.6663C111.541 20.6663 110.178 20.0841 109.061 18.9199C107.961 17.7397 107.411 16.2963 107.411 14.5898C107.411 12.8992 107.961 11.4718 109.061 10.3075C110.178 9.12734 111.541 8.53723 113.152 8.53723C113.95 8.53723 114.691 8.71267 115.377 9.06354C116.063 9.39847 116.597 9.83706 116.98 10.3793V8.77646H119.611V19.9247C119.611 21.9183 119.037 23.4254 117.889 24.4461C116.757 25.4669 115.257 25.9772 113.391 25.9772Z" fill="black"/>
<path d="M99.1803 20.9773C97.5535 20.9773 96.1819 20.3712 95.0655 19.1591C93.965 17.947 93.4148 16.4797 93.4148 14.7573C93.4148 13.0348 93.965 11.5675 95.0655 10.3554C96.1819 9.14329 97.5535 8.53723 99.1803 8.53723C99.9937 8.53723 100.743 8.72064 101.429 9.08747C102.115 9.43834 102.641 9.86895 103.008 10.3793V8.77646H105.64V20.738H103.008V19.1352C102.641 19.6456 102.115 20.0841 101.429 20.451C100.743 20.8018 99.9937 20.9773 99.1803 20.9773ZM97.099 17.4845C97.7688 18.2181 98.6221 18.585 99.6587 18.585C100.695 18.585 101.549 18.2181 102.219 17.4845C102.888 16.7509 103.223 15.8418 103.223 14.7573C103.223 13.6727 102.888 12.7637 102.219 12.03C101.549 11.2964 100.695 10.9295 99.6587 10.9295C98.6221 10.9295 97.7688 11.2964 97.099 12.03C96.4291 12.7637 96.0942 13.6727 96.0942 14.7573C96.0942 15.8418 96.4291 16.7509 97.099 17.4845Z" fill="black"/>
<path d="M86.5422 20.7381V8.77648H89.1738V10.9056C89.3971 10.2358 89.8038 9.69353 90.3939 9.27886C90.9999 8.86419 91.6458 8.65686 92.3316 8.65686C92.7463 8.65686 93.0892 8.68876 93.3603 8.75255V11.4559C92.9776 11.3123 92.539 11.2406 92.0446 11.2406C91.2471 11.2406 90.5693 11.5675 90.0111 12.2214C89.4529 12.8594 89.1738 13.7525 89.1738 14.9008V20.7381H86.5422Z" fill="black"/>
<path d="M83.5739 5.35542C84.6744 6.40803 85.2246 7.72381 85.2246 9.30274C85.2246 10.8817 84.6744 12.2054 83.5739 13.274C82.4734 14.3266 81.062 14.8529 79.3395 14.8529H76.7319V20.738H73.9329V3.75256H79.3395C81.062 3.75256 82.4734 4.28685 83.5739 5.35542ZM81.6122 11.408C82.1864 10.8498 82.4734 10.148 82.4734 9.30274C82.4734 8.45745 82.1864 7.76368 81.6122 7.22142C81.054 6.66321 80.2885 6.38411 79.3156 6.38411H76.7319V12.2214H79.3156C80.2885 12.2214 81.054 11.9502 81.6122 11.408Z" fill="black"/>
<path d="M59.881 20.9773C58.2542 20.9773 56.8826 20.3712 55.7662 19.1591C54.6657 17.947 54.1155 16.4797 54.1155 14.7573C54.1155 13.0348 54.6657 11.5675 55.7662 10.3554C56.8826 9.14329 58.2542 8.53723 59.881 8.53723C60.6943 8.53723 61.4439 8.72064 62.1297 9.08747C62.8155 9.43834 63.3418 9.86895 63.7087 10.3793V8.77646H66.3402V20.738H63.7087V19.1352C63.3418 19.6456 62.8155 20.0841 62.1297 20.451C61.4439 20.8018 60.6943 20.9773 59.881 20.9773ZM57.7996 17.4845C58.4695 18.2181 59.3228 18.585 60.3594 18.585C61.3961 18.585 62.2494 18.2181 62.9192 17.4845C63.589 16.7509 63.924 15.8418 63.924 14.7573C63.924 13.6727 63.589 12.7637 62.9192 12.03C62.2494 11.2964 61.3961 10.9295 60.3594 10.9295C59.3228 10.9295 58.4695 11.2964 57.7996 12.03C57.1298 12.7637 56.7949 13.6727 56.7949 14.7573C56.7949 15.8418 57.1298 16.7509 57.7996 17.4845Z" fill="black"/>
<path d="M41.7292 20.738V8.77646H44.3608V10.4032C45.1104 9.15923 46.3225 8.53723 47.9971 8.53723C49.3847 8.53723 50.4931 8.99177 51.3224 9.90085C52.1518 10.8099 52.5664 12.022 52.5664 13.5372V20.738H49.9349V13.9678C49.9349 13.0109 49.7116 12.2692 49.265 11.7429C48.8185 11.2007 48.2124 10.9295 47.4469 10.9295C46.5378 10.9295 45.7962 11.2724 45.222 11.9582C44.6479 12.644 44.3608 13.6089 44.3608 14.8529V20.738H41.7292Z" fill="black"/>
<path d="M29.8208 20.738V3.75256H40.036V6.43196H32.6198V10.786H38.6006V13.4654H32.6198V18.0586H40.036V20.738H29.8208Z" fill="black"/>
</svg>
