<svg width="155" height="27" viewBox="0 0 155 27" fill="none" xmlns="http://www.w3.org/2000/svg">
<path fill-rule="evenodd" clip-rule="evenodd" d="M18.0453 5.81852C19.6414 5.81852 20.9352 4.52537 20.9352 2.93019C20.9352 1.33502 19.6414 0.0418701 18.0453 0.0418701C16.4494 0.0418701 15.1555 1.33502 15.1555 2.93019C15.1555 4.52537 16.4494 5.81852 18.0453 5.81852Z" fill="white"/>
<path fill-rule="evenodd" clip-rule="evenodd" d="M18.0453 13.3965C19.6414 13.3965 20.9352 12.1034 20.9352 10.5082C20.9352 8.913 19.6414 7.61987 18.0453 7.61987C16.4494 7.61987 15.1555 8.913 15.1555 10.5082C15.1555 12.1034 16.4494 13.3965 18.0453 13.3965Z" fill="white"/>
<path fill-rule="evenodd" clip-rule="evenodd" d="M18.0453 20.9745C19.6414 20.9745 20.9352 19.6814 20.9352 18.0862C20.9352 16.491 19.6414 15.1979 18.0453 15.1979C16.4494 15.1979 15.1555 16.491 15.1555 18.0862C15.1555 19.6814 16.4494 20.9745 18.0453 20.9745Z" fill="white"/>
<path fill-rule="evenodd" clip-rule="evenodd" d="M10.6865 13.3965C12.2825 13.3965 13.5763 12.1034 13.5763 10.5082C13.5763 8.913 12.2825 7.61987 10.6865 7.61987C9.09046 7.61987 7.79663 8.913 7.79663 10.5082C7.79663 12.1034 9.09046 13.3965 10.6865 13.3965Z" fill="white"/>
<path fill-rule="evenodd" clip-rule="evenodd" d="M10.6865 20.9744C12.2825 20.9744 13.5763 19.6813 13.5763 18.0861C13.5763 16.4909 12.2825 15.1978 10.6865 15.1978C9.09046 15.1978 7.79663 16.4909 7.79663 18.0861C7.79663 19.6813 9.09046 20.9744 10.6865 20.9744Z" fill="white"/>
<path fill-rule="evenodd" clip-rule="evenodd" d="M3.3276 20.9745C4.92362 20.9745 6.21744 19.6814 6.21744 18.0862C6.21744 16.491 4.92362 15.1979 3.3276 15.1979C1.73158 15.1979 0.437744 16.491 0.437744 18.0862C0.437744 19.6814 1.73158 20.9745 3.3276 20.9745Z" fill="white"/>
<path d="M147.817 21.0191C146.191 21.0191 144.819 20.4131 143.703 19.201C142.602 17.9889 142.052 16.5216 142.052 14.7991C142.052 13.0767 142.602 11.6094 143.703 10.3973C144.819 9.18516 146.191 8.5791 147.817 8.5791C148.631 8.5791 149.38 8.76251 150.066 9.12934C150.752 9.48021 151.278 9.91082 151.645 10.4212V8.81833H154.277V20.7799H151.645V19.1771C151.278 19.6874 150.752 20.126 150.066 20.4928C149.38 20.8437 148.631 21.0191 147.817 21.0191ZM145.736 17.5264C146.406 18.26 147.259 18.6268 148.296 18.6268C149.333 18.6268 150.186 18.26 150.856 17.5264C151.526 16.7927 151.86 15.8836 151.86 14.7991C151.86 13.7146 151.526 12.8055 150.856 12.0719C150.186 11.3382 149.333 10.9714 148.296 10.9714C147.259 10.9714 146.406 11.3382 145.736 12.0719C145.066 12.8055 144.731 13.7146 144.731 14.7991C144.731 15.8836 145.066 16.7927 145.736 17.5264Z" fill="white"/>
<path d="M137.873 20.7799V14.0575C137.873 13.0846 137.689 12.3271 137.322 11.7848C136.971 11.2425 136.445 10.9714 135.743 10.9714C134.898 10.9714 134.22 11.2984 133.71 11.9523C133.2 12.6062 132.928 13.5232 132.897 14.7034V20.7799H130.265V14.0575C130.265 13.0846 130.082 12.3271 129.715 11.7848C129.364 11.2425 128.838 10.9714 128.136 10.9714C127.259 10.9714 126.557 11.3143 126.031 12.0001C125.52 12.6859 125.265 13.6508 125.265 14.8948V20.7799H122.634V8.81833H125.265V10.4451C125.999 9.2011 127.131 8.5791 128.662 8.5791C130.464 8.5791 131.7 9.36857 132.37 10.9475C132.705 10.1979 133.216 9.61577 133.901 9.2011C134.603 8.78644 135.369 8.5791 136.198 8.5791C137.538 8.5791 138.59 9.03364 139.356 9.94272C140.121 10.8518 140.504 12.0799 140.504 13.6269V20.7799H137.873Z" fill="white"/>
<path d="M111.532 17.2632C112.218 17.949 113.063 18.2919 114.068 18.2919C115.073 18.2919 115.918 17.949 116.604 17.2632C117.29 16.5615 117.633 15.6843 117.633 14.6317C117.633 13.579 117.29 12.7098 116.604 12.024C115.918 11.3223 115.073 10.9714 114.068 10.9714C113.063 10.9714 112.218 11.3223 111.532 12.024C110.847 12.7098 110.504 13.579 110.504 14.6317C110.504 15.6843 110.847 16.5615 111.532 17.2632ZM113.829 26.0191C112.665 26.0191 111.588 25.8197 110.599 25.421C109.61 25.0382 108.821 24.504 108.231 23.8182L109.834 21.9282C110.902 23.0925 112.226 23.6746 113.805 23.6746C114.842 23.6746 115.703 23.3397 116.389 22.6698C117.075 22.0159 117.417 21.1069 117.417 19.9426V18.8421C117.035 19.3844 116.5 19.831 115.815 20.1818C115.129 20.5327 114.387 20.7081 113.59 20.7081C111.979 20.7081 110.615 20.126 109.499 18.9618C108.398 17.7815 107.848 16.3382 107.848 14.6317C107.848 12.9411 108.398 11.5137 109.499 10.3494C110.615 9.16921 111.979 8.5791 113.59 8.5791C114.387 8.5791 115.129 8.75454 115.815 9.10541C116.5 9.44034 117.035 9.87893 117.417 10.4212V8.81833H120.049V19.9665C120.049 21.9601 119.475 23.4673 118.326 24.488C117.194 25.5087 115.695 26.0191 113.829 26.0191Z" fill="white"/>
<path d="M99.6178 21.0191C97.991 21.0191 96.6194 20.4131 95.503 19.201C94.4025 17.9889 93.8523 16.5216 93.8523 14.7991C93.8523 13.0767 94.4025 11.6094 95.503 10.3973C96.6194 9.18516 97.991 8.5791 99.6178 8.5791C100.431 8.5791 101.181 8.76251 101.867 9.12934C102.552 9.48021 103.079 9.91082 103.445 10.4212V8.81833H106.077V20.7799H103.445V19.1771C103.079 19.6874 102.552 20.126 101.867 20.4928C101.181 20.8437 100.431 21.0191 99.6178 21.0191ZM97.5365 17.5264C98.2063 18.26 99.0596 18.6268 100.096 18.6268C101.133 18.6268 101.986 18.26 102.656 17.5264C103.326 16.7927 103.661 15.8836 103.661 14.7991C103.661 13.7146 103.326 12.8055 102.656 12.0719C101.986 11.3382 101.133 10.9714 100.096 10.9714C99.0596 10.9714 98.2063 11.3382 97.5365 12.0719C96.8666 12.8055 96.5317 13.7146 96.5317 14.7991C96.5317 15.8836 96.8666 16.7927 97.5365 17.5264Z" fill="white"/>
<path d="M86.9797 20.7799V8.81835H89.6113V10.9475C89.8346 10.2777 90.2413 9.7354 90.8314 9.32073C91.4374 8.90606 92.0833 8.69873 92.7691 8.69873C93.1838 8.69873 93.5267 8.73063 93.7978 8.79442V11.4977C93.4151 11.3542 92.9765 11.2824 92.4821 11.2824C91.6846 11.2824 91.0068 11.6094 90.4486 12.2633C89.8904 12.9012 89.6113 13.7944 89.6113 14.9427V20.7799H86.9797Z" fill="white"/>
<path d="M84.0114 5.39729C85.1119 6.4499 85.6621 7.76568 85.6621 9.34461C85.6621 10.9235 85.1119 12.2473 84.0114 13.3159C82.9109 14.3685 81.4995 14.8948 79.777 14.8948H77.1694V20.7799H74.3704V3.79443H79.777C81.4995 3.79443 82.9109 4.32872 84.0114 5.39729ZM82.0497 11.4498C82.6239 10.8916 82.9109 10.1899 82.9109 9.34461C82.9109 8.49932 82.6239 7.80555 82.0497 7.26329C81.4915 6.70509 80.726 6.42598 79.7531 6.42598H77.1694V12.2632H79.7531C80.726 12.2632 81.4915 11.9921 82.0497 11.4498Z" fill="white"/>
<path d="M60.3185 21.0191C58.6917 21.0191 57.3201 20.4131 56.2037 19.201C55.1032 17.9889 54.553 16.5216 54.553 14.7991C54.553 13.0767 55.1032 11.6094 56.2037 10.3973C57.3201 9.18516 58.6917 8.5791 60.3185 8.5791C61.1318 8.5791 61.8814 8.76251 62.5672 9.12934C63.253 9.48021 63.7793 9.91082 64.1462 10.4212V8.81833H66.7777V20.7799H64.1462V19.1771C63.7793 19.6874 63.253 20.126 62.5672 20.4928C61.8814 20.8437 61.1318 21.0191 60.3185 21.0191ZM58.2371 17.5264C58.907 18.26 59.7603 18.6268 60.7969 18.6268C61.8336 18.6268 62.6869 18.26 63.3567 17.5264C64.0265 16.7927 64.3615 15.8836 64.3615 14.7991C64.3615 13.7146 64.0265 12.8055 63.3567 12.0719C62.6869 11.3382 61.8336 10.9714 60.7969 10.9714C59.7603 10.9714 58.907 11.3382 58.2371 12.0719C57.5673 12.8055 57.2324 13.7146 57.2324 14.7991C57.2324 15.8836 57.5673 16.7927 58.2371 17.5264Z" fill="white"/>
<path d="M42.1667 20.7799V8.81833H44.7983V10.4451C45.5479 9.2011 46.76 8.5791 48.4346 8.5791C49.8222 8.5791 50.9306 9.03364 51.7599 9.94272C52.5893 10.8518 53.0039 12.0639 53.0039 13.579V20.7799H50.3724V14.0097C50.3724 13.0527 50.1491 12.3111 49.7025 11.7848C49.256 11.2425 48.6499 10.9714 47.8844 10.9714C46.9753 10.9714 46.2337 11.3143 45.6595 12.0001C45.0854 12.6859 44.7983 13.6508 44.7983 14.8948V20.7799H42.1667Z" fill="white"/>
<path d="M30.2583 20.7799V3.79443H40.4735V6.47383H33.0573V10.8278H39.0381V13.5072H33.0573V18.1005H40.4735V20.7799H30.2583Z" fill="white"/>
</svg>
